<svg xmlns="http://www.w3.org/2000/svg" width="660" height="410" viewBox="0 0 660 410" role="img" aria-labelledby="title desc">
  <title id="title">Initial setup / 初期配置</title>
  <desc id="desc">A5 and a5: 6; A6, A7, a6 and a7: 2; 22 in each hand. / A5・a5に6個、A6・A7・a6・a7に2個、手元は各22個。</desc>
  <metadata>Adapted from the rule explanations of bao-la-kiswahili-ja contributors, reference 1179267b1f19b27a2138791253f2cb9cbfe98c14. New diagram design and engine-checked examples by bao-la-kiswahili-game contributors, 2026. CC BY-SA 4.0. https://creativecommons.org/licenses/by-sa/4.0/</metadata>
  <defs><marker id="arrow" viewBox="0 0 10 10" refX="9" refY="5" markerWidth="5" markerHeight="5" orient="auto-start-reverse"><path d="M 0 0 L 10 5 L 0 10 z" fill="#a54824"/></marker></defs>
  <g font-family="system-ui, sans-serif"><rect width="660" height="410" rx="12" fill="#f5f3e9"/><rect x="16" y="35" width="628" height="76" rx="12" fill="#e9e8df"/><circle cx="57" cy="70" r="25" fill="#fffefa" stroke="#527161" stroke-width="2"/><text x="57" y="77" text-anchor="middle" font-size="24" fill="#243e37" font-weight="600">0</text><text x="57" y="110" text-anchor="middle" font-size="14" fill="#243e37" font-weight="600">b8</text><circle cx="135" cy="70" r="25" fill="#fffefa" stroke="#527161" stroke-width="2"/><text x="135" y="77" text-anchor="middle" font-size="24" fill="#243e37" font-weight="600">0</text><text x="135" y="110" text-anchor="middle" font-size="14" fill="#243e37" font-weight="600">b7</text><circle cx="213" cy="70" r="25" fill="#fffefa" stroke="#527161" stroke-width="2"/><text x="213" y="77" text-anchor="middle" font-size="24" fill="#243e37" font-weight="600">0</text><text x="213" y="110" text-anchor="middle" font-size="14" fill="#243e37" font-weight="600">b6</text><circle cx="291" cy="70" r="25" fill="#fffefa" stroke="#527161" stroke-width="2"/><text x="291" y="77" text-anchor="middle" font-size="24" fill="#243e37" font-weight="600">0</text><text x="291" y="110" text-anchor="middle" font-size="14" fill="#243e37" font-weight="600">b5</text><circle cx="369" cy="70" r="25" fill="#fffefa" stroke="#527161" stroke-width="2"/><text x="369" y="77" text-anchor="middle" font-size="24" fill="#243e37" font-weight="600">0</text><text x="369" y="110" text-anchor="middle" font-size="14" fill="#243e37" font-weight="600">b4</text><circle cx="447" cy="70" r="25" fill="#fffefa" stroke="#527161" stroke-width="2"/><text x="447" y="77" text-anchor="middle" font-size="24" fill="#243e37" font-weight="600">0</text><text x="447" y="110" text-anchor="middle" font-size="14" fill="#243e37" font-weight="600">b3</text><circle cx="525" cy="70" r="25" fill="#fffefa" stroke="#527161" stroke-width="2"/><text x="525" y="77" text-anchor="middle" font-size="24" fill="#243e37" font-weight="600">0</text><text x="525" y="110" text-anchor="middle" font-size="14" fill="#243e37" font-weight="600">b2</text><circle cx="603" cy="70" r="25" fill="#fffefa" stroke="#527161" stroke-width="2"/><text x="603" y="77" text-anchor="middle" font-size="24" fill="#243e37" font-weight="600">0</text><text x="603" y="110" text-anchor="middle" font-size="14" fill="#243e37" font-weight="600">b1</text><rect x="16" y="117" width="628" height="76" rx="12" fill="#dfebd6"/><circle cx="57" cy="152" r="25" fill="#fffefa" stroke="#527161" stroke-width="2"/><text x="57" y="159" text-anchor="middle" font-size="24" fill="#243e37" font-weight="600">0</text><text x="57" y="192" text-anchor="middle" font-size="14" fill="#243e37" font-weight="600">a8</text><circle cx="135" cy="152" r="25" fill="#fffefa" stroke="#527161" stroke-width="2"/><text x="135" y="159" text-anchor="middle" font-size="24" fill="#243e37" font-weight="600">2</text><text x="135" y="192" text-anchor="middle" font-size="14" fill="#243e37" font-weight="600">a7</text><circle cx="213" cy="152" r="25" fill="#fffefa" stroke="#527161" stroke-width="2"/><text x="213" y="159" text-anchor="middle" font-size="24" fill="#243e37" font-weight="600">2</text><text x="213" y="192" text-anchor="middle" font-size="14" fill="#243e37" font-weight="600">a6</text><rect x="266" y="127" width="50" height="50" rx="9" fill="#f6de92" stroke="#8c6b15" stroke-width="2"/><text x="291" y="159" text-anchor="middle" font-size="24" fill="#243e37" font-weight="600">6</text><text x="291" y="192" text-anchor="middle" font-size="14" fill="#243e37" font-weight="600">a5</text><circle cx="369" cy="152" r="25" fill="#fffefa" stroke="#527161" stroke-width="2"/><text x="369" y="159" text-anchor="middle" font-size="24" fill="#243e37" font-weight="600">0</text><text x="369" y="192" text-anchor="middle" font-size="14" fill="#243e37" font-weight="600">a4</text><circle cx="447" cy="152" r="25" fill="#fffefa" stroke="#527161" stroke-width="2"/><text x="447" y="159" text-anchor="middle" font-size="24" fill="#243e37" font-weight="600">0</text><text x="447" y="192" text-anchor="middle" font-size="14" fill="#243e37" font-weight="600">a3</text><circle cx="525" cy="152" r="25" fill="#fffefa" stroke="#527161" stroke-width="2"/><text x="525" y="159" text-anchor="middle" font-size="24" fill="#243e37" font-weight="600">0</text><text x="525" y="192" text-anchor="middle" font-size="14" fill="#243e37" font-weight="600">a2</text><circle cx="603" cy="152" r="25" fill="#fffefa" stroke="#527161" stroke-width="2"/><text x="603" y="159" text-anchor="middle" font-size="24" fill="#243e37" font-weight="600">0</text><text x="603" y="192" text-anchor="middle" font-size="14" fill="#243e37" font-weight="600">a1</text><rect x="16" y="227" width="628" height="76" rx="12" fill="#dfebd6"/><circle cx="57" cy="262" r="25" fill="#fffefa" stroke="#527161" stroke-width="2"/><text x="57" y="269" text-anchor="middle" font-size="24" fill="#243e37" font-weight="600">0</text><text x="57" y="302" text-anchor="middle" font-size="14" fill="#243e37" font-weight="600">A1</text><circle cx="135" cy="262" r="25" fill="#fffefa" stroke="#527161" stroke-width="2"/><text x="135" y="269" text-anchor="middle" font-size="24" fill="#243e37" font-weight="600">0</text><text x="135" y="302" text-anchor="middle" font-size="14" fill="#243e37" font-weight="600">A2</text><circle cx="213" cy="262" r="25" fill="#fffefa" stroke="#527161" stroke-width="2"/><text x="213" y="269" text-anchor="middle" font-size="24" fill="#243e37" font-weight="600">0</text><text x="213" y="302" text-anchor="middle" font-size="14" fill="#243e37" font-weight="600">A3</text><circle cx="291" cy="262" r="25" fill="#fffefa" stroke="#527161" stroke-width="2"/><text x="291" y="269" text-anchor="middle" font-size="24" fill="#243e37" font-weight="600">0</text><text x="291" y="302" text-anchor="middle" font-size="14" fill="#243e37" font-weight="600">A4</text><rect x="344" y="237" width="50" height="50" rx="9" fill="#f6de92" stroke="#8c6b15" stroke-width="2"/><text x="369" y="269" text-anchor="middle" font-size="24" fill="#243e37" font-weight="600">6</text><text x="369" y="302" text-anchor="middle" font-size="14" fill="#243e37" font-weight="600">A5</text><circle cx="447" cy="262" r="25" fill="#fffefa" stroke="#527161" stroke-width="2"/><text x="447" y="269" text-anchor="middle" font-size="24" fill="#243e37" font-weight="600">2</text><text x="447" y="302" text-anchor="middle" font-size="14" fill="#243e37" font-weight="600">A6</text><circle cx="525" cy="262" r="25" fill="#fffefa" stroke="#527161" stroke-width="2"/><text x="525" y="269" text-anchor="middle" font-size="24" fill="#243e37" font-weight="600">2</text><text x="525" y="302" text-anchor="middle" font-size="14" fill="#243e37" font-weight="600">A7</text><circle cx="603" cy="262" r="25" fill="#fffefa" stroke="#527161" stroke-width="2"/><text x="603" y="269" text-anchor="middle" font-size="24" fill="#243e37" font-weight="600">0</text><text x="603" y="302" text-anchor="middle" font-size="14" fill="#243e37" font-weight="600">A8</text><rect x="16" y="309" width="628" height="76" rx="12" fill="#e9e8df"/><circle cx="57" cy="344" r="25" fill="#fffefa" stroke="#527161" stroke-width="2"/><text x="57" y="351" text-anchor="middle" font-size="24" fill="#243e37" font-weight="600">0</text><text x="57" y="384" text-anchor="middle" font-size="14" fill="#243e37" font-weight="600">B1</text><circle cx="135" cy="344" r="25" fill="#fffefa" stroke="#527161" stroke-width="2"/><text x="135" y="351" text-anchor="middle" font-size="24" fill="#243e37" font-weight="600">0</text><text x="135" y="384" text-anchor="middle" font-size="14" fill="#243e37" font-weight="600">B2</text><circle cx="213" cy="344" r="25" fill="#fffefa" stroke="#527161" stroke-width="2"/><text x="213" y="351" text-anchor="middle" font-size="24" fill="#243e37" font-weight="600">0</text><text x="213" y="384" text-anchor="middle" font-size="14" fill="#243e37" font-weight="600">B3</text><circle cx="291" cy="344" r="25" fill="#fffefa" stroke="#527161" stroke-width="2"/><text x="291" y="351" text-anchor="middle" font-size="24" fill="#243e37" font-weight="600">0</text><text x="291" y="384" text-anchor="middle" font-size="14" fill="#243e37" font-weight="600">B4</text><circle cx="369" cy="344" r="25" fill="#fffefa" stroke="#527161" stroke-width="2"/><text x="369" y="351" text-anchor="middle" font-size="24" fill="#243e37" font-weight="600">0</text><text x="369" y="384" text-anchor="middle" font-size="14" fill="#243e37" font-weight="600">B5</text><circle cx="447" cy="344" r="25" fill="#fffefa" stroke="#527161" stroke-width="2"/><text x="447" y="351" text-anchor="middle" font-size="24" fill="#243e37" font-weight="600">0</text><text x="447" y="384" text-anchor="middle" font-size="14" fill="#243e37" font-weight="600">B6</text><circle cx="525" cy="344" r="25" fill="#fffefa" stroke="#527161" stroke-width="2"/><text x="525" y="351" text-anchor="middle" font-size="24" fill="#243e37" font-weight="600">0</text><text x="525" y="384" text-anchor="middle" font-size="14" fill="#243e37" font-weight="600">B7</text><circle cx="603" cy="344" r="25" fill="#fffefa" stroke="#527161" stroke-width="2"/><text x="603" y="351" text-anchor="middle" font-size="24" fill="#243e37" font-weight="600">0</text><text x="603" y="384" text-anchor="middle" font-size="14" fill="#243e37" font-weight="600">B8</text><text x="330" y="23" text-anchor="middle" font-size="17" fill="#243e37" font-weight="600">NORTH</text><text x="330" y="218" text-anchor="middle" font-size="17" fill="#243e37" font-weight="600">SOUTH</text><text x="330" y="401" text-anchor="middle" font-size="17" fill="#243e37" font-weight="600">10 + 22 = 32     × 2 = 64</text></g>
</svg>
